# xmcd
#
# Track frame offsets:
#	150
#	13248
#	25773
#	40412
#	53915
#	67948
#	81309
#	96768
#	108849
#	121629
#	134511
#	148778
#	160471
#	175093
#	187885
#
# Disc length: 2660 seconds
#
# Revision: 0
# Processed by: cddbd v1.5.2PL0 Copyright (c) Steve Scherf et al.
# Submitted via: EasyCDDAExtractor 10.2.0.1
#
DISCID=c60a620f
DTITLE=The Carter Family - The Best Of
DYEAR=2006
DGENRE=Country
TTITLE0=Keep On Te Sunny Side
TTITLE1=Worried Man Blues
TTITLE2=Wildwood Flower
TTITLE3=Wabash Cannon Ball
TTITLE4=I'm Thinking Tonight Of My Blue Eyes
TTITLE5=John Hardy Was A Desperate Little Man
TTITLE6=The Wandering Boy
TTITLE7=River Of Jordan
TTITLE8=Single Girl, Married Girl
TTITLE9=Ther'll Be Joy, Joy, Joy
TTITLE10=Lover's return
TTITLE11=Lonesome Homesick Blues
TTITLE12=The Sea Of Gailee
TTITLE13=Something Got A Hold Me
TTITLE14=It's A Long Long Road I Travel Alone
EXTD=
EXTT0=
EXTT1=
EXTT2=
EXTT3=
EXTT4=
EXTT5=
EXTT6=
EXTT7=
EXTT8=
EXTT9=
EXTT10=
EXTT11=
EXTT12=
EXTT13=
EXTT14=
PLAYORDER=
